<?xml version="1.0" standalone="no"?>
<!DOCTYPE svg PUBLIC "-//W3C//DTD SVG 20010904//EN"
 "http://www.w3.org/TR/2001/REC-SVG-20010904/DTD/svg10.dtd">
<svg version="1.0" xmlns="http://www.w3.org/2000/svg"
 width="1600.000000pt" height="1600.000000pt" viewBox="0 0 1600.000000 1600.000000"
 preserveAspectRatio="xMidYMid meet">
<metadata>
Created by potrace 1.11, written by Peter Selinger 2001-2013
</metadata>
<g transform="translate(0.000000,1600.000000) scale(0.100000,-0.100000)"
fill="#000000" stroke="none">
<path d="M7565 15969 c-1959 -104 -3806 -930 -5205 -2329 -962 -962 -1650
-2123 -2026 -3418 -417 -1440 -417 -3004 0 -4444 461 -1586 1403 -2987 2706
-4027 616 -492 1358 -919 2060 -1187 41 -15 77 -31 80 -34 3 -3 12 -6 20 -8 8
-2 67 -22 130 -44 1356 -479 2827 -585 4235 -303 1550 309 2950 1060 4075
2185 1125 1125 1871 2515 2184 4070 386 1916 51 3914 -939 5605 -780 1332
-1976 2445 -3360 3125 -1231 605 -2585 881 -3960 809z m1005 -339 c1692 -129
3211 -764 4500 -1879 186 -161 570 -545 731 -731 954 -1103 1559 -2379 1793
-3785 74 -447 100 -778 100 -1270 0 -457 -27 -832 -85 -1174 -11 -64 -22 -134
-25 -156 -18 -140 -116 -565 -180 -789 -315 -1089 -844 -2057 -1603 -2936
-161 -186 -545 -570 -731 -731 -1107 -956 -2378 -1558 -3785 -1793 -447 -74
-778 -100 -1270 -100 -492 0 -823 26 -1270 100 -1406 234 -2682 839 -3785
1793 -186 161 -570 545 -731 731 -962 1112 -1563 2388 -1798 3815 -69 423 -95
760 -95 1240 0 480 26 817 95 1240 235 1426 838 2706 1798 3815 161 186 545
570 731 731 1109 960 2389 1563 3815 1798 287 47 497 69 930 95 108 7 727 -3
865 -14z"/>
<path d="M7690 15624 c-30 -2 -127 -8 -215 -14 -376 -25 -801 -88 -1181 -175
-1225 -282 -2333 -847 -3304 -1684 -186 -161 -600 -575 -761 -761 -976 -1132
-1590 -2470 -1798 -3916 -59 -408 -75 -649 -75 -1109 0 -380 8 -550 40 -835
176 -1570 795 -2985 1833 -4190 160 -186 574 -600 761 -761 1275 -1101 2774
-1724 4480 -1861 202 -16 888 -16 1090 0 1706 137 3202 758 4480 1861 186 161
600 575 761 761 936 1085 1533 2346 1774 3750 13 74 46 322 59 440 32 285 40
455 40 835 0 380 -8 550 -40 835 -176 1571 -796 2988 -1833 4190 -161 187
-575 601 -761 761 -512 441 -1051 800 -1635 1089 -885 437 -1811 689 -2830
770 -131 11 -783 21 -885 14z m910 -269 c1225 -102 2369 -488 3390 -1144 891
-573 1668 -1349 2239 -2237 618 -963 997 -2033 1125 -3174 32 -282 41 -464 41
-820 0 -633 -55 -1114 -195 -1710 -551 -2345 -2257 -4306 -4512 -5186 -683
-267 -1379 -423 -2163 -486 -234 -19 -870 -16 -1115 5 -1248 108 -2375 488
-3404 1148 -888 571 -1664 1348 -2237 2239 -585 911 -964 1944 -1103 3010 -48
366 -60 555 -60 980 0 425 12 614 60 980 140 1073 521 2108 1114 3026 570 883
1331 1644 2214 2214 1030 666 2203 1062 3416 1155 113 8 237 17 275 19 151 8
740 -4 915 -19z"/>
<path d="M7690 14294 c-25 -2 -112 -8 -195 -15 -1004 -74 -2018 -411 -2875
-957 -786 -501 -1451 -1166 -1952 -1952 -485 -762 -809 -1654 -923 -2543 -42
-336 -50 -457 -50 -827 0 -370 8 -491 50 -827 176 -1375 820 -2666 1827 -3659
902 -890 1993 -1461 3266 -1708 146 -29 442 -68 657 -88 185 -17 806 -17 990
0 670 62 1216 188 1804 417 1121 436 2116 1211 2828 2205 597 834 989 1827
1118 2833 42 336 50 457 50 827 0 418 -24 718 -86 1070 -44 252 -143 661 -161
668 -5 2 -4 10 3 18 8 10 8 14 0 14 -6 0 -10 3 -9 8 4 12 -71 239 -139 422
-361 969 -958 1836 -1733 2519 -185 163 -279 237 -294 233 -6 -2 -8 -1 -4 3
20 20 -466 355 -742 512 -802 457 -1633 718 -2575 809 -148 14 -746 27 -855
18z m830 -299 c1541 -143 2954 -860 3964 -2010 480 -547 818 -1098 1086 -1770
313 -787 460 -1688 409 -2515 -7 -118 -14 -246 -15 -285 -2 -38 -10 -113 -19
-165 -9 -52 -27 -162 -41 -245 -48 -288 -124 -597 -221 -890 -95 -288 -282
-727 -391 -913 l-25 -43 -24 43 c-14 24 -59 107 -99 186 -94 181 -93 182 102
183 116 0 144 9 131 43 -3 8 12 44 35 81 64 107 69 126 72 262 2 68 -1 126 -6
129 -4 3 -6 10 -2 15 8 13 -166 181 -231 223 -55 36 -112 59 -126 50 -5 -3 -9
-1 -9 4 0 11 -89 36 -98 28 -3 -3 -10 -2 -16 3 -6 5 -36 14 -66 20 -30 6 -64
13 -75 15 -11 3 -69 19 -130 36 -60 18 -114 33 -120 35 -5 1 -27 10 -48 19
-21 9 -62 27 -92 40 -60 27 -160 93 -189 125 -10 11 -22 18 -26 16 -4 -2 -15
4 -25 15 -10 11 -15 20 -11 20 4 0 -20 31 -53 70 -118 137 -202 275 -374 610
-66 129 -125 238 -131 242 -6 4 -7 8 -3 8 10 0 -71 152 -90 167 -8 6 -13 14
-11 17 2 3 -26 50 -61 104 -44 65 -111 143 -203 237 -199 202 -295 339 -376
538 -13 31 -28 57 -34 57 -5 0 -7 4 -4 9 16 26 -186 422 -207 406 -4 -3 -5 -2
-3 1 3 3 -24 44 -60 90 -82 108 -117 179 -130 264 -9 66 -15 130 -20 220 -2
58 -7 116 -11 130 -3 14 -5 42 -4 63 2 20 -2 37 -7 37 -6 0 -8 8 -5 18 7 30
-53 202 -101 285 -142 249 -356 407 -700 518 -49 16 -91 27 -94 24 -3 -3 -10
-1 -16 4 -6 5 -79 23 -161 40 -83 18 -174 38 -203 47 -29 8 -57 12 -61 9 -5
-3 -11 -2 -13 3 -1 4 -34 20 -73 36 -129 54 -275 173 -378 307 l-28 37 0 318
c0 174 3 352 7 395 6 77 7 78 47 106 27 19 49 47 69 88 16 33 47 89 69 125 41
68 85 192 74 210 -3 5 -1 10 6 10 7 0 10 11 7 30 -3 17 0 30 5 30 14 0 1 124
-17 159 -9 16 -30 40 -48 52 -18 12 -34 23 -36 25 -2 1 -5 51 -6 110 -5 136
-12 248 -21 294 -6 36 -50 179 -65 215 -61 145 -124 250 -143 238 -6 -3 -7 -1
-3 5 4 6 -16 28 -46 50 -80 60 -179 106 -254 117 -16 2 -49 10 -74 16 -50 12
-280 18 -350 8 -208 -30 -340 -122 -479 -333 -66 -100 -121 -232 -106 -256 3
-6 2 -10 -4 -10 -5 0 -13 -19 -17 -42 -4 -24 -9 -54 -11 -68 -3 -14 -6 -107
-7 -207 -3 -180 -3 -181 -29 -212 -37 -44 -50 -103 -43 -185 4 -38 9 -73 13
-79 3 -5 7 -25 9 -44 4 -48 44 -129 92 -190 22 -28 48 -68 57 -90 9 -21 32
-54 51 -74 l36 -36 2 -388 2 -387 -77 -68 c-43 -37 -75 -72 -71 -77 4 -4 3 -5
-2 -1 -6 5 -99 -55 -126 -82 -3 -3 -21 -13 -40 -24 -19 -10 -87 -46 -150 -80
-63 -34 -144 -75 -180 -90 -36 -16 -67 -32 -70 -35 -3 -3 -11 -7 -17 -8 -7 -2
-77 -30 -154 -63 -78 -33 -216 -86 -306 -117 -159 -54 -166 -58 -229 -117
-151 -140 -273 -351 -323 -557 -16 -68 -19 -110 -17 -267 3 -220 -1 -239 -96
-408 -33 -60 -61 -115 -61 -121 0 -7 -3 -11 -5 -8 -3 3 -15 -10 -26 -29 -12
-19 -58 -95 -102 -168 -45 -73 -98 -166 -118 -207 -48 -94 -97 -221 -90 -232
3 -5 0 -9 -6 -9 -7 0 -10 -7 -6 -15 3 -8 2 -15 -3 -15 -5 0 -11 -10 -15 -23
-3 -13 -23 -50 -45 -84 -22 -34 -36 -64 -33 -68 4 -4 3 -5 -3 -3 -5 1 -22 -9
-36 -22 -37 -36 -89 -79 -89 -74 0 3 -26 -14 -57 -37 -73 -52 -214 -190 -207
-201 3 -5 1 -7 -4 -6 -12 4 -194 -212 -229 -271 -48 -82 -305 -475 -386 -591
-137 -195 -264 -336 -367 -407 -59 -40 -194 -107 -247 -123 -24 -7 -43 -17
-43 -21 0 -5 -7 -6 -15 -3 -8 4 -15 2 -15 -3 0 -6 -20 -8 -45 -6 -61 7 -166
-26 -240 -75 -87 -57 -185 -138 -177 -147 4 -3 2 -5 -4 -3 -18 5 -214 -163
-221 -191 -9 -33 -9 -84 0 -251 4 -74 4 -159 -1 -189 -9 -50 -8 -56 13 -77 13
-13 21 -25 18 -27 -2 -3 7 -14 21 -25 22 -17 43 -20 81 -12 30 7 58 -3 89 -31
34 -30 35 -32 21 -59 -24 -45 -113 -160 -174 -223 l-56 -57 -34 67 c-241 476
-438 1060 -536 1591 -77 411 -99 662 -99 1112 0 369 13 562 54 845 195 1326
792 2508 1737 3436 1063 1045 2427 1643 3928 1723 147 8 667 -4 825 -19z
m-2135 -5041 c11 -8 18 -17 17 -20 -2 -3 5 -28 16 -57 11 -29 34 -97 52 -152
17 -55 38 -113 45 -130 121 -280 160 -393 182 -530 10 -69 4 -1010 -7 -1010
-3 0 -9 -32 -14 -75 -2 -19 -6 -42 -10 -50 -3 -8 -19 -80 -35 -160 -17 -80
-35 -160 -40 -179 -6 -19 -8 -38 -5 -42 3 -5 0 -9 -6 -9 -7 0 -10 -7 -6 -15 3
-8 1 -15 -4 -15 -5 0 -12 -16 -16 -35 -7 -39 -36 -65 -71 -65 -13 0 -23 -3
-23 -7 0 -8 -490 -4 -695 5 -60 3 -139 6 -175 8 -36 1 -72 5 -80 8 -17 5 -105
17 -161 21 -20 1 -41 5 -47 9 -5 3 -41 8 -78 10 -38 3 -69 6 -69 7 0 1 -9 3
-20 4 -11 2 -42 6 -70 9 -71 10 -209 18 -365 21 -74 2 -169 6 -210 9 -41 3
-119 7 -172 7 -95 2 -97 2 -106 28 -5 14 -6 35 -2 46 4 11 5 24 2 29 -3 5 0 6
6 2 5 -3 12 -2 14 4 1 5 31 29 65 53 35 24 59 47 55 51 -4 4 -2 6 3 4 12 -3
357 237 470 327 106 85 335 295 321 295 -5 0 -1 9 9 20 10 11 21 17 26 15 13
-9 269 294 269 319 0 4 8 16 18 26 10 11 52 79 93 150 101 179 169 280 250
377 38 45 69 84 69 86 0 2 20 25 45 52 24 27 42 52 39 57 -3 5 -1 7 4 6 11 -4
181 193 182 210 0 6 4 12 9 12 12 0 77 90 74 101 -2 5 1 9 7 9 5 0 27 38 49
85 42 90 56 100 96 69z m3409 -26 c20 -23 59 -85 87 -138 60 -112 88 -151 173
-245 217 -238 313 -366 447 -597 31 -54 59 -95 63 -93 3 3 4 2 1 -1 -13 -18
168 -316 261 -430 19 -22 30 -44 26 -48 -4 -4 -2 -6 4 -4 6 2 36 -27 68 -64
31 -38 61 -68 66 -68 5 0 10 -6 12 -14 4 -18 284 -321 374 -405 38 -35 98 -92
134 -126 75 -71 224 -177 235 -167 5 4 5 2 2 -4 -4 -7 -1 -14 6 -17 6 -2 49
-32 94 -65 44 -33 84 -59 87 -56 3 2 4 2 2 -1 -2 -3 9 -19 25 -35 26 -26 41
-82 22 -79 -5 1 -10 1 -13 0 -18 -4 -498 -16 -650 -16 -304 0 -787 16 -907 30
-116 13 -220 24 -233 24 -17 1 -125 13 -220 25 -69 9 -228 44 -249 56 -12 6
-26 8 -31 5 -6 -3 -10 -1 -10 6 0 7 -3 10 -6 6 -3 -3 -25 13 -49 36 -39 39
-85 132 -85 172 0 8 -5 15 -11 15 -5 0 -7 5 -4 10 4 6 1 35 -5 65 -6 30 -13
74 -16 97 -17 159 -29 281 -38 408 -7 89 -17 291 -16 305 1 6 3 46 6 90 7 141
13 218 24 300 5 44 12 100 15 125 6 61 31 182 50 247 9 30 13 58 10 62 -3 5
-1 11 3 13 7 3 40 103 85 258 9 30 21 92 27 137 18 134 51 223 84 223 8 0 31
-19 50 -42z m3391 -2839 c28 -20 68 -46 90 -57 52 -26 73 -63 56 -95 -7 -13
-11 -27 -10 -33 5 -21 -35 -96 -63 -116 -24 -17 -34 -19 -48 -10 -10 6 -35 14
-55 18 -28 5 -54 22 -94 63 -63 63 -62 61 -67 154 -3 66 -2 69 29 97 55 48 73
46 162 -21z m-10210 28 c49 -27 55 -55 23 -99 -13 -18 -25 -46 -27 -63 -4 -35
-23 -76 -45 -94 -9 -8 -16 -20 -16 -27 0 -8 -16 -21 -37 -29 -33 -14 -38 -14
-56 2 -37 34 -48 108 -27 193 18 75 32 101 64 121 41 25 72 24 121 -4z m9499
-321 c15 -7 28 -18 28 -22 2 -16 133 -215 203 -309 24 -33 70 -98 101 -145
125 -187 244 -309 325 -330 l40 -11 -22 -37 c-486 -806 -1131 -1475 -1907
-1979 -755 -490 -1643 -812 -2532 -917 -74 -9 -148 -18 -165 -21 -168 -24
-839 -25 -1100 -1 -1437 133 -2741 751 -3751 1777 -236 241 -403 438 -594 704
-148 206 -350 526 -350 554 0 7 9 9 25 5 16 -4 25 -2 25 6 0 6 4 9 9 6 5 -3
47 29 94 72 80 73 327 325 327 334 0 6 82 98 158 178 34 37 59 70 55 75 -5 4
-3 5 4 2 6 -4 20 3 30 16 10 13 36 30 57 38 38 14 38 14 70 -23 19 -21 39 -62
49 -95 18 -66 66 -145 81 -136 6 3 8 3 4 -2 -9 -9 182 -211 195 -207 5 1 6 -2
2 -7 -7 -13 155 -152 216 -186 26 -14 84 -32 130 -41 135 -25 197 -59 434
-239 161 -122 226 -143 460 -152 384 -14 582 -17 1465 -20 979 -4 1345 -9
2375 -28 619 -12 807 -15 1085 -20 298 -4 628 -7 665 -4 55 3 211 31 219 39 4
4 15 6 22 3 8 -3 14 0 14 7 0 6 4 9 10 5 15 -9 124 50 275 150 77 51 163 104
192 119 91 46 219 82 388 110 11 2 20 4 20 6 0 1 13 4 30 6 16 3 35 9 41 15 6
5 13 7 16 4 6 -6 66 15 140 48 79 36 168 123 210 204 44 84 70 161 73 220 2
24 6 47 9 50 3 4 6 48 6 100 0 51 4 93 9 93 5 0 21 -6 35 -14z"/>
<path d="M12220 6746 c0 -2 8 -10 18 -17 15 -13 16 -12 3 4 -13 16 -21 21 -21
13z"/>
<path d="M5159 7373 c-13 -16 -12 -17 4 -4 9 7 17 15 17 17 0 8 -8 3 -21 -13z"/>
<path d="M7562 4660 c0 -14 2 -19 5 -12 2 6 2 18 0 25 -3 6 -5 1 -5 -13z"/>
</g>
</svg>
